<svg xmlns="http://www.w3.org/2000/svg" width="28" height="26" viewBox="0 0 28 26">
  <g id="Group_1" data-name="Group 1" transform="translate(-497 -148.5)">
    <path id="Intersection_1" data-name="Intersection 1" d="M0,.288V0H25.5V.138L13,12.423Z" transform="translate(498.5 150.5)" fill="#fff"/>
    <g id="Group_2" data-name="Group 2" transform="translate(497 148.5)">
      <g id="Rectangle_3" data-name="Rectangle 3" fill="none" stroke="#fff" stroke-width="3">
        <path d="M0,0H28a0,0,0,0,1,0,0V21a5,5,0,0,1-5,5H5a5,5,0,0,1-5-5V0A0,0,0,0,1,0,0Z" stroke="none"/>
        <path d="M3,1.5H25A1.5,1.5,0,0,1,26.5,3V21A3.5,3.5,0,0,1,23,24.5H5A3.5,3.5,0,0,1,1.5,21V3A1.5,1.5,0,0,1,3,1.5Z" fill="none"/>
      </g>
    </g>
  </g>
</svg>
